<svg xmlns="http://www.w3.org/2000/svg" id="Calque_4" data-name="Calque 4" viewBox="0 0 960.5 1138.2"><defs><style>.cls-1{fill:red}</style></defs><path d="M480 40a437 437 0 0 1 441 440 437 437 0 0 1-441 441A437 437 0 0 1 40 480 437 437 0 0 1 480 40m0-40a480 480 0 1 0 0 960 480 480 0 0 0 0-960" class="cls-1"/><path d="M627 135H316c-22 0-37 21-31 42l156 480c9 30 51 30 61 0l155-480c7-21-8-42-30-42" class="cls-1"/><circle cx="471.4" cy="776" r="69.8" class="cls-1" transform="rotate(-9 471 776)"/></svg>