<?xml version="1.0" encoding="UTF-8"?>
<svg id="Calque_1" xmlns="http://www.w3.org/2000/svg" version="1.1" viewBox="0 0 960.6 960.6">
  <!-- Generator: Adobe Illustrator 30.8.1, SVG Export Plug-In . SVG Version: 2.1.4 Build 1)  -->
  <defs>
    <style>
      .st0 {
        fill: #d2ed70;
      }
    </style>
  </defs>
  <circle class="st0" cx="480.3" cy="480.3" r="480.3"/>
  <path d="M753,704H207c-33,0-60-27-60-61v-326c0-33,27-60,60-60h546c34,0,61,27,61,60v326c0,34-27,61-61,61M207,287c-16,0-30,13-30,30v326c0,17,14,31,30,31h546c17,0,31-14,31-31v-326c0-17-14-30-31-30H207Z"/>
  <path d="M162,365h637v97H162v-97Z"/>
  <path d="M461.3,555.5h60.3c8.95,0,16.2,7.23,16.2,16.15h0c0,8.92-7.25,16.15-16.2,16.15h-60.3c-8.95,0-16.2-7.23-16.2-16.15h0c0-8.92,7.25-16.15,16.2-16.15Z"/>
  <path d="M565.6,555.5h60.3c8.95,0,16.2,7.23,16.2,16.15h0c0,8.92-7.25,16.15-16.2,16.15h-60.3c-8.95,0-16.2-7.23-16.2-16.15h0c0-8.92,7.25-16.15,16.2-16.15Z"/>
  <path d="M669.8,555.5h60.3c8.95,0,16.2,7.23,16.2,16.15h0c0,8.92-7.25,16.15-16.2,16.15h-60.3c-8.95,0-16.2-7.23-16.2-16.15h0c0-8.92,7.25-16.15,16.2-16.15Z"/>
  <path d="M271,572c.67-22.67,10-40.33,28-53-10.67-7.33-23-11.33-37-12-35.34.63-63.48,29.79-62.85,65.13s29.79,63.48,65.13,62.85c12.39-.22,24.45-4.04,34.72-10.98-17.25-11.73-27.7-31.14-28-52"/>
  <circle cx="350.72" cy="571.72" r="64.4" transform="translate(-301.54 415.45) rotate(-45)"/>
</svg>